<svg width="1699" height="132" viewBox="0 0 1699 132" fill="none" xmlns="http://www.w3.org/2000/svg">
<path d="M39.9109 18.8C44.5109 17.2 50.1109 15.2 57.4109 15.2C53.7109 15.4 49.2109 15.6 45.5109 18.8H39.9109Z" fill="white"></path>
<path d="M47.611 18.8C50.611 17.2 54.411 15.2 57.311 15.2C56.111 15.4 54.411 15.6 55.811 18.8H47.611Z" fill="white"></path>
<path d="M65.6109 11.7C66.2109 10.1 66.9109 8.09998 64.3109 8.09998C65.9109 8.29998 68.0109 8.49997 73.8109 11.7H65.6109Z" fill="white"></path>
<path d="M81.211 3.6C79.111 2 76.611 0 69.511 0C73.411 0.2 78.311 0.399998 86.911 3.6H81.211Z" fill="white"></path>
<path d="M46.511 18.8C48.311 17.2 50.611 15.2 57.411 15.2C55.411 15.4 52.911 15.6 46.611 18.8" fill="white"></path>
<path d="M61.2109 13.7C60.4109 12.2 59.211 10.1 61.411 10.1C62.411 10.3 62.511 10.3 62.411 11.3C62.411 11.3 62.4109 12 61.2109 13.7Z" fill="white"></path>
<path d="M77.711 8.50002C74.511 6.90002 70.511 4.90002 67.111 4.90002C70.511 5.10002 74.611 5.30002 77.711 8.50002Z" fill="white"></path>
<path d="M29.7109 30.8C32.9109 28.2 38.1109 23.9 45.0109 19.9C43.8109 22 42.3109 24.5 43.5109 30.8H29.7109Z" fill="white"></path>
<path d="M53.2109 28C57.1109 23.4 60.0109 20 61.9109 17.1C63.6109 19.7 64.7109 21.2 70.3109 28H53.2109Z" fill="white"></path>
<path d="M77.9109 23.5C78.5109 20.1 79.1109 16.3 76.7109 12.6C80.0109 14.6 84.9109 17.6 91.9109 23.5H78.0109" fill="white"></path>
<path d="M101.911 17.4C100.111 14.1 98.1109 10.3 91.7109 6.5C96.4109 8.7 102.211 11.3 109.511 17.4H101.911Z" fill="white"></path>
<path d="M19.011 30.8C23.011 27.7 28.011 23.8 36.811 19.9C33.311 22.1 29.311 24.6 26.411 30.8H19.011Z" fill="white"></path>
<path d="M46.011 30.8C45.211 27.4 44.311 23.6 46.311 19.9H55.611C54.1443 21.6334 50.9443 25.2667 46.011 30.8Z" fill="white"></path>
<path d="M28.011 30.8C29.611 27.5 31.311 23.7 37.511 19.9H43.911C40.411 21.9 35.211 24.9 28.111 30.8" fill="white"></path>
<path d="M74.1109 27C68.5109 20.7 66.6109 18.6 64.7109 16.1H74.0109C74.9109 18.3 75.9109 20.7 74.0109 27" fill="white"></path>
<path d="M97.211 20.8C93.811 18 88.611 13.9 81.511 9.90002H88.011C91.211 12.1 94.911 14.6 97.311 20.8" fill="white"></path>
<path d="M106.811 67.6C104.811 63.1 102.111 56.9 95.4109 47.4H110.511C110.511 52.2 110.311 57.6 106.711 67.6" fill="white"></path>
<path d="M75.3109 71C71.3109 64.1 69.8109 61.6 62.8109 50.8H84.7109C83.0109 55.2 81.2109 60.2 75.3109 71Z" fill="white"></path>
<path d="M40.811 72.3C37.711 66.5 34.111 59.9 31.511 52.1H53.411C48.611 59.4 44.811 65.1 40.811 72.3Z" fill="white"></path>
<path d="M14.3109 72.3C12.5109 66.8 10.4109 60.6 10.6109 52.1H25.5109C22.1109 57.1 17.8109 63.3 14.2109 72.3" fill="white"></path>
<path d="M81.7109 70.6C84.7109 64.8 88.1109 58.3 90.5109 50.4C94.0109 55.4 98.3109 61.7 102.111 70.6H81.7109Z" fill="white"></path>
<path d="M44.511 72.3C47.111 67.9 51.311 61.1666 57.111 52.1C63.911 62.8 66.211 66.4 69.611 72.3H44.511Z" fill="white"></path>
<path d="M16.8109 72.3C18.9109 67.5 21.6109 61.6 28.4109 52.1C29.8109 56.4 31.5109 61.7 37.1109 72.3H16.8109Z" fill="white"></path>
<path d="M88.5109 45C85.2109 40.7 82.1109 36.7 74.8109 28.6H89.5109C90.1109 32.3 90.8109 36.5 88.5109 45Z" fill="white"></path>
<path d="M57.9109 48.2C54.8109 43.3 51.3109 37.8 48.9109 31.8H66.9109C65.4109 35.2 63.7109 39.1 57.8109 48.2" fill="white"></path>
<path d="M29.111 49.3C28.111 45.1 26.811 39.4 28.311 32.9H42.911C38.911 37.3 34.411 42.3 29.111 49.3Z" fill="white"></path>
<path d="M10.011 49.3C10.911 44.7 11.811 39.5 16.911 32.9H24.711C20.611 36.7 15.511 41.4 10.011 49.3Z" fill="white"></path>
<path d="M116.711 40.3C113.511 35.9 109.911 30.9 102.011 23.9H110.011C112.611 27.7 115.611 32 116.711 40.3Z" fill="white"></path>
<path d="M63.3109 48C66.2109 43.2 69.4109 37.7 71.4109 31.6C75.6109 36.4 79.9109 41.5 84.7109 48H63.2109" fill="white"></path>
<path d="M94.3109 42C95.2109 37.3 96.2109 32.1 94.3109 25.6C98.4109 29.4 103.511 34.1 109.111 42H94.3109Z" fill="white"></path>
<path d="M32.0109 49.3C35.9109 44.2 38.4109 41 45.4109 32.9C46.6109 36.2 48.1109 40.4 53.4109 49.3H31.9109" fill="white"></path>
<path d="M11.611 49.3C14.811 44.9 18.511 40 26.411 32.9C25.511 36.4 24.511 40.8 26.311 49.3H11.711" fill="white"></path>
<path d="M10.8109 95.6C10.8109 90.8 10.8109 85.4 14.2109 75.5C16.2109 80 18.9109 86.2 25.6109 95.6H10.8109Z" fill="white"></path>
<path d="M31.511 95.6C33.111 91.2 34.911 86.2 40.711 75.5C44.711 82.4 46.311 85 53.311 95.6H31.511Z" fill="white"></path>
<path d="M60.7109 95.6C65.9109 87.7 69.4109 82.4 73.3109 75.5C76.4109 81.3 79.9109 87.9 82.6109 95.6H60.8109" fill="white"></path>
<path d="M95.7109 94.7C99.2109 89.7 103.511 83.5 107.211 74.6C109.011 80.1 111.011 86.3 110.811 94.7H95.7109Z" fill="white"></path>
<path d="M28.5109 95.6C25.0109 90.6 20.6109 84.4 16.8109 75.5H37.1109C34.3109 80.9 30.8109 87.7 28.5109 95.6Z" fill="white"></path>
<path d="M57.0109 95.6C50.4109 85.4 47.9109 81.5 44.4109 75.5H69.5109C67.0442 79.7 62.8775 86.4 57.0109 95.6Z" fill="white"></path>
<path d="M89.4109 94.7C88.0109 90.4 86.3109 85.2 80.7109 74.6H101.111C98.9109 79.3 96.1109 85.2 89.3109 94.7" fill="white"></path>
<path d="M28.6109 114.6C27.9109 110.9 27.1109 106.8 29.2109 98.4C32.6109 102.7 35.7109 106.8 43.0109 114.6H28.6109Z" fill="white"></path>
<path d="M48.111 114.6C49.611 111.1 51.211 107.4 56.911 98.4C60.011 103.3 63.511 108.7 65.911 114.6H48.111Z" fill="white"></path>
<path d="M71.2109 114.6C75.1109 110.2 79.6109 105.3 84.9109 98.4C86.011 103 87.2109 108.3 85.7109 114.6H71.2109Z" fill="white"></path>
<path d="M96.511 114.1C100.611 110.4 105.811 105.7 111.311 97.9C110.411 102.4 109.411 107.6 104.411 114.1H96.511Z" fill="white"></path>
<path d="M17.4109 114.6C14.7109 110.9 11.6109 106.6 10.3109 98.4C13.5109 102.8 17.2109 107.7 25.1109 114.6H17.4109Z" fill="white"></path>
<path d="M45.511 114.6C41.311 109.8 37.011 104.9 32.111 98.4C38.511 98.4 45.711 98.4 53.411 98.4C50.711 102.9 47.411 108.6 45.511 114.6Z" fill="white"></path>
<path d="M26.8109 114.6C22.7109 110.8 17.5109 106.2 11.9109 98.4C15.6109 98.4 20.5109 98.4 26.4109 98.4C25.6109 103 24.8109 108.2 26.8109 114.6Z" fill="white"></path>
<path d="M68.611 114.6C67.411 111.3 65.911 107.2 60.611 98.4C68.311 98.4 75.511 98.4 81.911 98.4C78.011 103.5 75.611 106.5 68.611 114.6Z" fill="white"></path>
<path d="M89.2109 114.6C90.1109 110.9 91.1109 106.8 89.4109 98.4C95.3109 98.4 100.311 98.4 104.111 98.4C100.811 102.7 97.1109 107.7 89.2109 114.6Z" fill="white"></path>
<path d="M57.3109 131.7C63.1109 131.4 65.1109 130.8 68.5109 128.4H73.9109C66.511 130.9 63.6109 131.5 57.2109 131.7" fill="white"></path>
<path d="M57.3109 131.7C59.1109 131.4 59.5109 131 58.5109 128.4H66.4109C61.6109 130.9 60.0109 131.5 57.3109 131.7Z" fill="white"></path>
<path d="M57.311 131.7C54.511 131.4 52.811 130.8 48.011 128.4H55.911C55.111 131 55.511 131.5 57.311 131.7Z" fill="white"></path>
<path d="M57.311 131.7C50.811 131.4 47.811 130.8 40.511 128.4H45.911C49.411 130.9 51.511 131.5 57.311 131.7Z" fill="white"></path>
<path d="M57.3109 131.7C60.5109 131.4 62.3109 130.8 67.5109 128.4C64.5109 130.9 62.7109 131.5 57.3109 131.7Z" fill="white"></path>
<path d="M57.3109 131.7C56.9109 131.7 56.3109 131.5 56.3109 131.1C56.3109 130.2 56.3109 130.1 57.3109 128.3C58.1109 129.7 59.2109 131.6 57.3109 131.6" fill="white"></path>
<path d="M57.3109 131.7C51.8109 131.4 49.9109 130.8 46.9109 128.4C52.2109 130.9 54.0109 131.5 57.3109 131.7Z" fill="white"></path>
<path d="M69.011 127.3C70.311 125.2 71.711 122.8 70.511 116.7H84.211C81.111 119.2 75.811 123.5 69.011 127.3Z" fill="white"></path>
<path d="M57.2109 127.3C55.4109 124.8 54.4109 123.4 48.7109 116.7H65.6109C62.0109 121 59.1109 124.4 57.3109 127.3" fill="white"></path>
<path d="M45.411 127.3C42.111 125.4 37.111 122.5 30.111 116.7H43.711C43.211 120 42.711 123.8 45.311 127.3" fill="white"></path>
<path d="M37.411 127.3C32.711 125.2 26.911 122.6 19.511 116.7H26.811C28.711 120 30.811 123.7 37.411 127.3Z" fill="white"></path>
<path d="M81.4109 127.3C84.9109 125.2 88.9109 122.7 91.8109 116.7H99.3109C95.3109 119.8 90.2109 123.6 81.4109 127.3Z" fill="white"></path>
<path d="M58.8109 127.3C61.2109 124.4 61.5109 124.1 68.1109 116.7C68.9109 120 69.8109 123.8 67.8109 127.3H58.8109Z" fill="white"></path>
<path d="M71.9109 127.3C75.3109 125.4 80.5109 122.5 87.6109 116.7C86.0109 120 84.2109 123.7 78.1109 127.3H71.9109Z" fill="white"></path>
<path d="M46.7109 127.3C45.7109 125.3 44.6109 122.8 46.2109 116.7C52.7109 123.9 53.9109 125.1 55.7109 127.3H46.7109Z" fill="white"></path>
<path d="M38.1109 127.3C34.8109 125.2 31.0109 122.7 28.4109 116.7C31.9109 119.4 37.1109 123.5 44.2109 127.3H38.0109" fill="white"></path>
<path d="M4.31091 49.3C4.71091 48.4 5.1109 47.6 5.6109 46.7C8.2109 42.1 10.1109 38.8 16.2109 32.9C13.3109 36.7 10.0109 41 8.41092 49.3H4.31091Z" fill="white"></path>
<path d="M0.910889 72.3C2.01089 67.1 3.21088 61.2 8.81088 52.1C8.61088 56.9 8.41087 62.4 11.6109 72.3H0.910889Z" fill="white"></path>
<path d="M0.11094 72.3C-0.0890599 66.7 -0.28906 62.6 2.11094 54.9C2.41094 54 2.71094 53.1 3.11094 52.2H7.31095C4.51095 57.3 1.31094 63 0.11094 72.4" fill="white"></path>
<path d="M16.8109 114.6C12.9109 110.8 9.81095 107.7 5.91095 100.8C5.81095 100.6 5.71093 100.4 5.61093 100.2C5.31093 99.6 5.01094 99 4.71094 98.3H8.81094C10.0109 102.8 11.3109 108 16.8109 114.5" fill="white"></path>
<path d="M9.01086 95.6C6.01086 90.5 2.61089 84.8 0.910889 75.5H11.6109C10.0109 80.9 8.21086 87.1 9.01086 95.6Z" fill="white"></path>
<path d="M3.41088 95.6L2.41088 93C0.810882 87.8 -0.289137 84 0.110863 75.6C1.11086 80.8 2.21086 86.7 7.61086 95.7H3.41088" fill="white"></path>
<path d="M127.211 38.2H122.811C121.811 33.6 120.611 28.5 115.211 21.8C120.311 26.9 122.811 29.6 126.511 36.7C126.711 37.2 127.011 37.7 127.211 38.2Z" fill="white"></path>
<path d="M114.211 66.7C115.911 61.2 117.811 55 117.211 46.5C120.211 51.6 123.511 57.4 125.211 66.7H114.211Z" fill="white"></path>
<path d="M128.411 49.8C130.411 56.4 131.211 59.9 130.711 68.4C129.811 63.2 128.711 57.3 123.311 48.2H127.811C128.011 48.7 128.211 49.3 128.411 49.8Z" fill="white"></path>
<path d="M120.311 100C117.311 105.3 115.411 108.4 108.911 114.6C111.811 110.8 115.111 106.6 116.811 98.4C119.511 98.4 121.011 98.4 121.111 98.4C120.811 98.9 120.611 99.5 120.311 100Z" fill="white"></path>
<path d="M115.811 94.7C116.011 89.9 116.211 84.5 113.111 74.6H124.111C122.911 79.8 121.611 85.7 115.911 94.7" fill="white"></path>
<path d="M125.411 94.3H120.911C123.811 89.3 127.111 83.6 128.511 74.2C128.711 80.7 128.711 84.4 126.011 92.5C125.811 93.1 125.611 93.6 125.311 94.2" fill="white"></path>
<path d="M4.31094 49.3C4.51094 48.9 4.71094 48.5 4.81094 48.1C8.01094 42.1 9.81093 39.2 16.1109 32.9C13.2109 36.7 9.91094 41 8.31094 49.3C5.51094 49.3 4.11094 49.3 4.21094 49.3" fill="white"></path>
<path d="M0.11093 72.3C-0.18907 64.5 0.110936 61.1 2.71094 53.3C2.91094 52.9 3.01094 52.5 3.21094 52.1C3.11094 52.1 4.61095 52.1 7.41095 52.1C4.61095 57.2 1.41094 62.9 0.210936 72.3" fill="white"></path>
<path d="M3.41093 95.6C3.31093 95.2 3.11091 94.9 3.01091 94.5C0.51091 87.3 -0.189084 84 0.110916 75.5C1.11092 80.7 2.21092 86.6 7.61092 95.6C4.81092 95.6 3.31093 95.6 3.41093 95.6Z" fill="white"></path>
<path d="M243.909 95.0483V65.8104H191.056V95.0483H178.911V30.5H191.056V56.1394H243.909V30.5H256.054V95.0483H243.909Z" fill="white"></path>
<path d="M296.987 95.0483C293.389 95.0483 290.24 94.5985 287.541 93.9238C285.067 93.2491 282.818 92.1245 281.244 90.7751C279.669 89.4256 278.545 87.8513 277.645 85.8271C276.97 84.0279 276.521 81.7788 276.521 79.5297V46.2435C276.521 43.9944 276.97 41.9703 277.645 39.9461C278.32 37.922 279.444 36.3476 281.244 34.9981C282.818 33.6487 284.842 32.5242 287.541 31.8494C290.015 31.1747 293.164 30.7249 296.987 30.7249H339.495C343.093 30.7249 346.242 31.1747 348.941 31.8494C351.415 32.5242 353.664 33.6487 355.238 34.9981C356.812 36.3476 357.937 37.922 358.837 39.9461C359.511 41.9703 359.961 43.9944 359.961 46.2435V79.5297C359.961 81.7788 359.511 84.0279 358.837 85.8271C358.162 87.6264 357.037 89.4256 355.238 90.7751C353.664 92.1245 351.415 93.2491 348.941 93.9238C346.467 94.5985 343.318 95.0483 339.495 95.0483H296.987ZM347.816 46.0186C347.816 41.9703 345.117 40.171 339.72 40.171H297.212C291.814 40.171 289.115 42.1952 289.115 46.0186V79.5297C289.115 83.5781 291.814 85.3773 297.212 85.3773H339.72C345.117 85.3773 347.816 83.3531 347.816 79.5297V46.0186Z" fill="white"></path>
<path d="M380.652 95.0483V30.5H392.797V85.3773H445.201V94.8234H380.652V95.0483Z" fill="white"></path>
<path d="M480.961 95.0483C477.362 95.0483 474.214 94.5985 471.515 93.9238C469.041 93.2491 466.792 92.1245 465.217 90.7751C463.643 89.4256 462.519 87.8513 461.619 85.8271C460.944 84.0279 460.494 81.7788 460.494 79.5297V46.2435C460.494 43.9944 460.944 41.9703 461.619 39.9461C462.294 37.922 463.418 36.3476 465.217 34.9981C466.792 33.6487 469.041 32.5242 471.515 31.8494C473.989 31.1747 477.138 30.7249 480.961 30.7249H523.468C527.067 30.7249 530.216 31.1747 532.914 31.8494C535.388 32.5242 537.637 33.6487 539.212 34.9981C540.786 36.3476 541.911 37.922 542.81 39.9461C543.485 41.9703 543.935 43.9944 543.935 46.2435V79.5297C543.935 81.7788 543.485 84.0279 542.81 85.8271C542.136 87.6264 541.011 89.4256 539.212 90.7751C537.637 92.1245 535.388 93.2491 532.914 93.9238C530.44 94.5985 527.292 95.0483 523.468 95.0483H480.961ZM531.565 46.0186C531.565 41.9703 528.866 40.171 523.468 40.171H480.961C475.563 40.171 472.864 42.1952 472.864 46.0186V79.5297C472.864 83.5781 475.563 85.3773 480.961 85.3773H523.468C528.866 85.3773 531.565 83.3531 531.565 79.5297V46.0186Z" fill="white"></path>
<path d="M586.892 95.0483C571.599 95.0483 563.952 90.3253 563.952 81.1041V44.4443C563.952 35.2231 571.599 30.5 586.892 30.5H637.496V39.9461H586.892C579.695 39.9461 576.097 41.5205 576.097 44.4443V81.1041C576.097 84.0279 579.695 85.6022 586.892 85.6022H615.455C622.652 85.6022 626.251 84.2528 626.251 81.329V59.9628H638.396V81.329C638.396 90.5502 630.749 95.0483 615.455 95.0483H586.892Z" fill="white"></path>
<path d="M720.262 95.0483L705.193 66.2602H671.232V95.0483H659.087V30.5H713.964C717.563 30.5 720.712 30.9498 723.41 31.6245C725.884 32.2993 728.134 33.4238 729.708 34.7733C731.282 36.1227 732.407 37.697 733.306 39.7212C733.981 41.7454 734.431 43.7695 734.431 46.0186V50.5167C734.431 54.5651 733.306 58.1636 730.832 60.8624C728.358 63.5613 724.31 65.3606 718.463 65.8104L733.756 94.8234H720.712L720.262 95.0483ZM721.836 46.0186C721.836 41.9703 719.137 40.171 713.74 40.171H671.232V56.8141H713.74C719.137 56.8141 721.836 54.79 721.836 50.9666V46.2435V46.0186Z" fill="white"></path>
<path d="M827.543 95.0483L794.256 43.0948L760.52 95.0483H747.026L789.983 30.5H798.979L841.487 95.0483H827.768H827.543Z" fill="white"></path>
<path d="M943.37 95.0483V49.842L910.533 95.0483H900.637L867.801 50.0669V95.0483H856.556V30.5H868.026L906.26 83.1283L944.269 30.5H954.615V95.0483H943.37Z" fill="white"></path>
<path d="M978.321 95.5V86.2142H1034.04C1039.26 86.2142 1042.16 84.4732 1042.16 80.4107V72.2857C1042.16 68.2232 1039.26 66.4822 1034.04 66.4822H996.312C992.83 66.4822 989.348 66.4821 987.027 65.3214C984.705 64.741 982.384 63.5803 980.643 61.8392C978.902 60.6785 977.741 58.9375 977.161 57.1964C976.58 55.4554 976 53.1339 976 50.8125V47.3303C976 45.0089 976 43.2679 977.161 40.9465C977.741 39.2054 978.902 37.4643 980.643 35.7233C982.384 34.5625 984.125 33.4018 987.027 32.2411C989.348 31.6607 992.83 31.0804 996.312 31.0804H1050.87V40.3661H996.312C991.089 40.3661 988.188 42.1072 988.188 46.1697V50.2321C988.188 54.2946 991.089 56.0356 996.312 56.0356H1034.04C1037.52 56.0356 1041 56.0357 1043.32 57.1964C1045.64 57.7768 1047.96 58.9375 1049.71 60.6786C1051.45 61.8393 1052.61 63.5803 1053.19 65.3214C1053.77 67.0624 1054.35 69.3839 1054.35 71.7053V79.8303C1054.35 82.1517 1054.35 84.4732 1053.19 86.2142C1052.61 87.9553 1051.45 89.6963 1049.71 90.857C1047.96 92.0177 1046.22 93.1785 1043.32 94.3392C1041 94.9196 1037.52 95.5 1034.04 95.5H978.321Z" fill="white"></path>
<path d="M1083.95 95.5C1080.46 95.5 1076.98 95.4999 1074.66 94.3392C1072.34 93.7589 1070.02 92.5981 1068.28 90.857C1066.54 89.6963 1065.38 87.9553 1064.79 86.2143C1064.21 84.4732 1063.63 82.1517 1063.63 79.8303V46.7501C1063.63 44.4287 1063.63 42.6876 1064.79 40.3661C1065.38 38.6251 1066.54 36.8839 1068.28 35.1429C1070.02 33.9822 1071.76 32.8215 1074.66 31.6608C1076.98 31.0804 1080.46 30.5 1083.95 30.5H1126.31C1129.79 30.5 1133.28 30.5001 1135.6 31.6608C1137.92 32.2411 1140.24 33.4018 1141.98 35.1429C1143.72 36.3036 1144.88 38.0447 1145.46 40.3661C1146.04 42.1072 1146.62 44.4287 1146.62 46.7501V79.8303C1146.62 82.1517 1146.63 84.4732 1145.46 86.2143C1144.88 87.9553 1143.72 89.6963 1141.98 90.857C1140.24 92.0177 1138.5 93.1785 1135.6 94.3392C1133.28 94.9196 1129.79 95.5 1126.31 95.5H1083.95ZM1135.02 46.1697C1135.02 42.1072 1132.12 40.3661 1126.89 40.3661H1084.53C1079.3 40.3661 1076.4 42.1072 1076.4 46.1697V79.8303C1076.4 83.8928 1079.3 85.6339 1084.53 85.6339H1126.89C1132.12 85.6339 1135.02 83.8928 1135.02 79.8303V46.1697Z" fill="white"></path>
<path d="M1158.23 95.5V31.0804H1170.42V85.6339H1222.65V94.9196H1158.23V95.5Z" fill="white"></path>
<path d="M1251.09 95.5C1247.61 95.5 1244.12 95.4999 1241.8 94.3392C1239.48 93.7588 1237.16 92.5981 1235.42 90.857C1233.68 89.6963 1232.52 87.9553 1231.94 86.2142C1231.36 84.4732 1230.78 82.1517 1230.78 79.8303V31.0804H1242.96V79.8303C1242.96 83.8928 1245.87 85.6339 1251.09 85.6339H1291.13C1296.36 85.6339 1299.26 83.8928 1299.26 79.8303V31.0804H1311.45V79.8303C1311.45 82.1517 1311.45 84.4732 1310.87 86.2142C1310.87 87.9553 1309.7 89.6963 1307.96 90.857C1306.8 92.0177 1305.06 93.1785 1302.74 94.3392C1300.42 94.9196 1297.52 95.5 1294.04 95.5H1251.67H1251.09Z" fill="white"></path>
<path d="M1352.65 95.5V40.9465H1318.99V31.6608H1397.92V40.9465H1364.84V95.5H1352.65Z" fill="white"></path>
<path d="M1406.04 95.5V31.0804H1418.23V95.5H1406.04Z" fill="white"></path>
<path d="M1450.73 95.5C1447.25 95.5 1443.77 95.4999 1441.45 94.3392C1439.12 93.7589 1436.8 92.5981 1435.06 90.857C1433.32 89.6963 1432.16 87.9553 1431.58 86.2143C1431 84.4732 1430.42 82.1517 1430.42 79.8303V46.7501C1430.42 44.4287 1430.42 42.6876 1431.58 40.3661C1432.16 38.6251 1433.32 36.8839 1435.06 35.1429C1436.8 33.9822 1438.54 32.8215 1441.45 31.6608C1443.77 31.0804 1447.25 30.5 1450.73 30.5H1493.1C1496.58 30.5 1500.06 30.5001 1502.38 31.6608C1504.7 32.2411 1507.03 33.4018 1508.77 35.1429C1510.51 36.3036 1511.67 38.0447 1512.25 40.3661C1512.83 42.1072 1513.41 44.4287 1513.41 46.7501V79.8303C1513.41 82.1517 1513.41 84.4732 1512.25 86.2143C1511.67 87.9553 1510.51 89.6963 1508.77 90.857C1507.03 92.0177 1505.29 93.1785 1502.38 94.3392C1500.06 94.9196 1496.58 95.5 1493.1 95.5H1450.73ZM1501.22 46.1697C1501.22 42.1072 1498.32 40.3661 1493.1 40.3661H1450.73C1445.51 40.3661 1442.61 42.1072 1442.61 46.1697V79.8303C1442.61 83.8928 1445.51 85.6339 1450.73 85.6339H1493.1C1498.32 85.6339 1501.22 83.8928 1501.22 79.8303V46.1697Z" fill="white"></path>
<path d="M1603.95 95.5L1535.46 45.5893V95.5H1525.02V31.0804H1535.46L1599.3 78.6697V31.0804H1609.75V95.5H1603.95Z" fill="white"></path>
<path d="M1622.52 95.5V86.2142H1678.23C1683.45 86.2142 1686.36 84.4732 1686.36 80.4107V72.2857C1686.36 68.2232 1683.45 66.4822 1678.23 66.4822H1640.51C1637.03 66.4822 1633.54 66.4821 1631.22 65.3214C1628.9 64.741 1626.58 63.5803 1624.84 61.8392C1623.1 60.6785 1621.94 58.9375 1621.36 57.1964C1620.78 55.4554 1620.2 53.1339 1620.2 50.8125V47.3303C1620.2 45.0089 1620.2 43.2679 1621.36 40.9465C1621.94 39.2054 1623.1 37.4643 1624.84 35.7233C1626.58 34.5625 1628.32 33.4018 1631.22 32.2411C1633.54 31.6607 1637.03 31.0804 1640.51 31.0804H1695.06V40.3661H1640.51C1635.29 40.3661 1632.38 42.1072 1632.38 46.1697V50.2321C1632.38 54.2946 1635.29 56.0356 1640.51 56.0356H1678.23C1681.71 56.0356 1685.2 56.0357 1687.52 57.1964C1689.84 57.7768 1692.16 58.9375 1693.9 60.6786C1695.64 61.8393 1696.8 63.5803 1697.38 65.3214C1697.96 67.0624 1698.54 69.3839 1698.54 71.7053V79.8303C1698.54 82.1517 1698.54 84.4732 1697.38 86.2142C1696.8 87.9553 1695.64 89.6963 1693.9 90.857C1692.16 92.0177 1690.42 93.1785 1687.52 94.3392C1685.2 94.9196 1681.71 95.5 1678.23 95.5H1622.52Z" fill="white"></path>
</svg>